<svg width="328" height="36" viewBox="0 0 328 36" fill="none" xmlns="http://www.w3.org/2000/svg">
<g clip-path="url(#clip0_5_21)">
<g clip-path="url(#clip1_5_21)">
<path d="M197 0.25H0.25V35.75H213.75V34.2465C211.522 34.1845 209.318 33.2987 207.65 31.8778C205.919 30.4029 204.75 28.3375 204.75 26V8C204.75 3.63807 201.362 0.25 197 0.25Z" fill="#131313" stroke="#AA00FF" stroke-width="0.5"/>
</g>
</g>
<g clip-path="url(#clip2_5_21)">
<path d="M131.084 0.269796L131.104 0.25H327.75V35.75H114.25V34.2465C116.478 34.1845 118.682 33.2987 120.35 31.8778C122.081 30.4029 123.25 28.3375 123.25 26V8.10355L123.27 8.08376L123.316 8.03779L123.361 7.99219L123.407 7.94695L123.451 7.90207L123.496 7.85754L123.54 7.81337L123.584 7.76956L123.627 7.7261L123.671 7.68299L123.713 7.64023L123.756 7.59782L123.798 7.55576L123.84 7.51405L123.881 7.47268L123.922 7.43165L123.963 7.39096L124.003 7.35062L124.043 7.31061L124.083 7.27094L124.122 7.23161L124.161 7.19261L124.2 7.15395L124.238 7.11562L124.276 7.07762L124.314 7.03994L124.351 7.0026L124.388 6.96558L124.425 6.92888L124.461 6.89251L124.497 6.85646L124.533 6.82074L124.568 6.78533L124.603 6.75023L124.638 6.71546L124.673 6.681L124.707 6.64685L124.741 6.61301L124.774 6.57949L124.807 6.54627L124.84 6.51336L124.873 6.48076L124.905 6.44846L124.937 6.41646L124.969 6.38477L125 6.35338L125.031 6.32228L125.062 6.29149L125.093 6.26099L125.123 6.23078L125.153 6.20087L125.182 6.17125L125.212 6.14192L125.241 6.11288L125.269 6.08413L125.298 6.05566L125.326 6.02748L125.354 5.99958L125.382 5.97196L125.409 5.94462L125.436 5.91756L125.463 5.89078L125.489 5.86428L125.516 5.83805L125.541 5.81209L125.567 5.7864L125.593 5.76099L125.618 5.73584L125.643 5.71097L125.667 5.68635L125.692 5.66201L125.716 5.63792L125.739 5.6141L125.763 5.59054L125.786 5.56723L125.809 5.54419L125.832 5.5214L125.855 5.49886L125.877 5.47658L125.899 5.45455L125.921 5.43277L125.942 5.41124L125.964 5.38996L125.985 5.36892L126.005 5.34813L126.026 5.32758L126.046 5.30727L126.066 5.2872L126.086 5.26737L126.106 5.24778L126.125 5.22843L126.144 5.20931L126.163 5.19042L126.182 5.17176L126.2 5.15334L126.218 5.13514L126.236 5.11717L126.254 5.09943L126.272 5.08191L126.289 5.06462L126.306 5.04754L126.323 5.03069L126.339 5.01406L126.356 4.99764L126.372 4.98144L126.388 4.96545L126.404 4.94968L126.419 4.93412L126.435 4.91877L126.45 4.90363L126.465 4.88869L126.48 4.87396L126.494 4.85944L126.508 4.84512L126.523 4.831L126.536 4.81708L126.55 4.80336L126.564 4.78983L126.577 4.77651L126.59 4.76338L126.603 4.75044L126.616 4.73769L126.628 4.72513L126.641 4.71276L126.653 4.70058L126.665 4.68859L126.677 4.67678L126.688 4.66515L126.7 4.6537L126.711 4.64244L126.722 4.63135L126.733 4.62044L126.744 4.60971L126.754 4.59915L126.765 4.58876L126.775 4.57855L126.785 4.56851L126.795 4.55863L126.805 4.54892L126.814 4.53938L126.824 4.53L126.833 4.52079L126.842 4.51174L126.851 4.50285L126.859 4.49411L126.868 4.48554L126.876 4.47712L126.885 4.46885L126.893 4.46074L126.901 4.45278L126.909 4.44497L126.916 4.4373L126.924 4.42979L126.931 4.42242L126.938 4.4152L126.945 4.40811L126.952 4.40117L126.959 4.39437L126.966 4.38771L126.972 4.38119L126.979 4.3748L126.985 4.36855L126.991 4.36243L126.997 4.35644L127.003 4.35058L127.009 4.34485L127.014 4.33925L127.02 4.33378L127.025 4.32842L127.03 4.3232L127.035 4.31809L127.04 4.3131L127.045 4.30823L127.05 4.30348L127.055 4.29885L127.059 4.29433L127.064 4.28992L127.068 4.28562L127.072 4.28144L127.076 4.27736L127.08 4.27339L127.084 4.26953L127.088 4.26577L127.091 4.26211L127.095 4.25855L127.098 4.2551L127.102 4.25174L127.105 4.24848L127.108 4.24532L127.111 4.24225L127.114 4.23928L127.117 4.23639L127.12 4.2336L127.123 4.23089L127.125 4.22828L127.128 4.22574L127.13 4.2233L127.133 4.22093L127.135 4.21865L127.137 4.21644L127.139 4.21432L127.141 4.21227L127.143 4.2103L127.145 4.2084L127.147 4.20658L127.149 4.20483L127.15 4.20314L127.152 4.20153L127.154 4.19998L127.155 4.1985L127.156 4.19709L127.158 4.19573L127.159 4.19444L127.16 4.19321L127.162 4.19204L127.163 4.19092L127.164 4.18986L127.165 4.18885L127.166 4.1879L127.167 4.187L127.167 4.18615L127.168 4.18534L127.169 4.18459L127.17 4.18388L127.17 4.18321L127.171 4.18259L127.172 4.18201L127.172 4.18147L127.173 4.18097L127.173 4.1805L127.173 4.18007L127.174 4.17968L127.174 4.17932L127.175 4.17898L127.175 4.17868L127.175 4.17841L127.175 4.17817L127.176 4.17795L127.176 4.17775L127.176 4.17758L127.176 4.17743L127.176 4.1773L127.176 4.17719L127.176 4.17709L127.177 4.17702L127.177 4.17695L127.177 4.1769L127.177 4.17686L127.177 4.17683L127.177 4.17681L127.177 4.17679L127.177 4.17678L127.177 4.17678L127.177 4.17677L127.177 4.17676L127.177 4.17675L127.177 4.17673L127.177 4.17669L127.177 4.17665L127.177 4.1766L127.177 4.17654L127.177 4.17646L127.177 4.17636L127.177 4.17625L127.177 4.17612L127.178 4.17597L127.178 4.1758L127.178 4.17561L127.178 4.17539L127.178 4.17514L127.179 4.17487L127.179 4.17457L127.179 4.17424L127.18 4.17388L127.18 4.17348L127.181 4.17305L127.181 4.17259L127.181 4.17208L127.182 4.17154L127.183 4.17096L127.183 4.17034L127.184 4.16967L127.185 4.16896L127.185 4.16821L127.186 4.16741L127.187 4.16655L127.188 4.16565L127.189 4.1647L127.19 4.16369L127.191 4.16263L127.192 4.16152L127.193 4.16034L127.194 4.15911L127.196 4.15782L127.197 4.15647L127.199 4.15505L127.2 4.15357L127.202 4.15202L127.203 4.15041L127.205 4.14873L127.207 4.14697L127.208 4.14515L127.21 4.14325L127.212 4.14128L127.214 4.13923L127.216 4.13711L127.219 4.13491L127.221 4.13262L127.223 4.13026L127.226 4.12781L127.228 4.12528L127.231 4.12266L127.234 4.11996L127.236 4.11716L127.239 4.11428L127.242 4.1113L127.245 4.10823L127.248 4.10507L127.252 4.10181L127.255 4.09845L127.259 4.095L127.262 4.09144L127.266 4.08779L127.27 4.08403L127.273 4.08016L127.277 4.07619L127.281 4.07212L127.286 4.06793L127.29 4.06363L127.294 4.05923L127.299 4.05471L127.303 4.05007L127.308 4.04532L127.313 4.04045L127.318 4.03547L127.323 4.03036L127.328 4.02513L127.334 4.01978L127.339 4.0143L127.345 4.0087L127.351 4.00297L127.356 3.99711L127.362 3.99112L127.369 3.985L127.375 3.97875L127.381 3.97236L127.388 3.96584L127.394 3.95918L127.401 3.95238L127.408 3.94544L127.415 3.93836L127.422 3.93113L127.43 3.92376L127.437 3.91625L127.445 3.90859L127.453 3.90078L127.461 3.89282L127.469 3.8847L127.477 3.87644L127.486 3.86802L127.494 3.85944L127.503 3.85071L127.512 3.84182L127.521 3.83276L127.53 3.82355L127.539 3.81417L127.549 3.80463L127.559 3.79492L127.569 3.78505L127.579 3.775L127.589 3.76479L127.599 3.7544L127.61 3.74384L127.62 3.73311L127.631 3.7222L127.642 3.71112L127.654 3.69985L127.665 3.6884L127.677 3.67678L127.689 3.66497L127.701 3.65297L127.713 3.64079L127.725 3.62842L127.738 3.61586L127.75 3.60312L127.763 3.59018L127.777 3.57705L127.79 3.56372L127.803 3.5502L127.817 3.53648L127.831 3.52256L127.845 3.50844L127.859 3.49412L127.874 3.47959L127.889 3.46486L127.904 3.44993L127.919 3.43479L127.934 3.41943L127.95 3.40387L127.965 3.3881L127.981 3.37211L127.998 3.35591L128.014 3.3395L128.031 3.32286L128.048 3.30601L128.065 3.28894L128.082 3.27164L128.099 3.25412L128.117 3.23638L128.135 3.21841L128.153 3.20021L128.172 3.18179L128.19 3.16313L128.209 3.14425L128.228 3.12513L128.248 3.10577L128.267 3.08618L128.287 3.06635L128.307 3.04628L128.328 3.02598L128.348 3.00543L128.369 2.98463L128.39 2.9636L128.411 2.94231L128.433 2.92078L128.455 2.899L128.477 2.87697L128.499 2.85469L128.521 2.83215L128.544 2.80937L128.567 2.78632L128.591 2.76302L128.614 2.73945L128.638 2.71563L128.662 2.69155L128.686 2.6672L128.711 2.64259L128.736 2.61771L128.761 2.59256L128.786 2.56715L128.812 2.54146L128.838 2.51551L128.864 2.48928L128.891 2.46277L128.918 2.43599L128.945 2.40893L128.972 2.3816L129 2.35398L129.027 2.32608L129.056 2.2979L129.084 2.26943L129.113 2.24067L129.142 2.21163L129.171 2.1823L129.201 2.15268L129.231 2.12277L129.261 2.09257L129.291 2.06207L129.322 2.03127L129.353 2.00017L129.385 1.96878L129.416 1.93709L129.448 1.90509L129.481 1.8728L129.513 1.84019L129.546 1.80728L129.579 1.77407L129.613 1.74054L129.647 1.7067L129.681 1.67256L129.715 1.6381L129.75 1.60332L129.785 1.56823L129.821 1.53282L129.856 1.49709L129.893 1.46104L129.929 1.42467L129.966 1.38797L130.003 1.35096L130.04 1.31361L130.078 1.27594L130.116 1.23794L130.154 1.1996L130.193 1.16094L130.232 1.12194L130.271 1.08261L130.311 1.04294L130.351 1.00294L130.391 0.962591L130.432 0.921906L130.473 0.880878L130.514 0.839508L130.556 0.797792L130.598 0.755731L130.64 0.713322L130.683 0.670563L130.726 0.627455L130.77 0.583994L130.813 0.54018L130.858 0.496011L130.902 0.451486L130.947 0.406604L130.992 0.361362L131.038 0.31576L131.084 0.269796Z" fill="#131313" stroke="#AA00FF" stroke-width="0.5"/>
</g>
<defs>
<clipPath id="clip0_5_21">
<rect width="214" height="36" fill="white" transform="matrix(-1 0 0 1 214 0)"/>
</clipPath>
<clipPath id="clip1_5_21">
<rect width="214" height="36" fill="white" transform="matrix(-1 0 0 1 214 0)"/>
</clipPath>
<clipPath id="clip2_5_21">
<rect width="214" height="36" fill="white" transform="translate(114)"/>
</clipPath>
</defs>
</svg>
